<mxfile host="65bd71144e">
    <diagram id="Aly_x5OI6V0zkRRVqMgj" name="Page-1">
        <mxGraphModel dx="637" dy="535" grid="1" gridSize="10" guides="1" tooltips="1" connect="1" arrows="1" fold="1" page="1" pageScale="1" pageWidth="850" pageHeight="1100" math="0" shadow="0">
            <root>
                <mxCell id="0"/>
                <mxCell id="1" parent="0"/>
                <mxCell id="14" value="" style="rounded=0;whiteSpace=wrap;html=1;shadow=0;glass=0;sketch=0;strokeColor=#666666;fontSize=5;fontColor=#333333;fillColor=#f5f5f5;" vertex="1" parent="1">
                    <mxGeometry x="387.5" y="50" width="102.5" height="70" as="geometry"/>
                </mxCell>
                <object label="&lt;div style=&quot;&quot;&gt;&lt;span style=&quot;color: rgb(51, 0, 26); background-color: initial;&quot;&gt;Client&lt;/span&gt;&lt;/div&gt;" id="2">
                    <mxCell style="rounded=0;whiteSpace=wrap;html=1;fillColor=#fad7ac;strokeColor=#b46504;glass=0;shadow=0;fontStyle=1;align=center;" vertex="1" parent="1">
                        <mxGeometry x="400" y="60" width="80" height="30" as="geometry"/>
                    </mxCell>
                </object>
                <mxCell id="16" style="edgeStyle=none;html=1;entryX=0.5;entryY=0;entryDx=0;entryDy=0;fontSize=5;fontColor=#33001A;fillColor=#fff2cc;strokeColor=#d6b656;rounded=0;" edge="1" parent="1" source="5" target="15">
                    <mxGeometry relative="1" as="geometry"/>
                </mxCell>
                <mxCell id="5" value="&lt;pre&gt;&lt;font style=&quot;font-size: 5px;&quot; color=&quot;#33001a&quot;&gt;Register&lt;/font&gt;&lt;/pre&gt;" style="rounded=0;whiteSpace=wrap;html=1;shadow=0;glass=0;strokeColor=#b46504;fillColor=#fad7ac;align=center;" vertex="1" parent="1">
                    <mxGeometry x="400" y="100" width="40" height="10" as="geometry"/>
                </mxCell>
                <mxCell id="10" value="&lt;pre&gt;&lt;font style=&quot;font-size: 5px;&quot; color=&quot;#33001a&quot;&gt;Login&lt;/font&gt;&lt;/pre&gt;" style="rounded=0;whiteSpace=wrap;html=1;shadow=0;glass=0;strokeColor=#b46504;fillColor=#fad7ac;align=center;" vertex="1" parent="1">
                    <mxGeometry x="440" y="100" width="40" height="10" as="geometry"/>
                </mxCell>
                <mxCell id="15" value="&lt;blockquote style=&quot;margin: 0 0 0 40px; border: none; padding: 0px;&quot;&gt;&lt;br&gt;&lt;/blockquote&gt;" style="rounded=0;shadow=0;glass=0;sketch=0;strokeColor=#F0F0F0;fontSize=5;fontColor=default;fillColor=none;align=right;labelPosition=left;verticalLabelPosition=top;verticalAlign=bottom;whiteSpace=wrap;html=1;labelBackgroundColor=none;spacingTop=0;spacingLeft=0;" vertex="1" parent="1">
                    <mxGeometry x="400" y="140" width="40" height="40" as="geometry"/>
                </mxCell>
                <mxCell id="24" style="edgeStyle=none;html=1;exitX=0.5;exitY=1;exitDx=0;exitDy=0;entryX=0.5;entryY=0;entryDx=0;entryDy=0;fontSize=10;fontColor=#33001A;fillColor=#ffe6cc;strokeColor=#d79b00;" edge="1" parent="1" source="22" target="23">
                    <mxGeometry relative="1" as="geometry"/>
                </mxCell>
                <mxCell id="22" value="&lt;font style=&quot;font-size: 10px;&quot;&gt;&lt;u style=&quot;&quot;&gt;&lt;i style=&quot;&quot;&gt;User:&lt;br&gt;&lt;/i&gt;&lt;/u&gt;Email&lt;br&gt;PW&lt;br&gt;&lt;/font&gt;" style="text;strokeColor=none;fillColor=none;html=1;fontSize=12;fontStyle=1;verticalAlign=middle;align=center;rounded=0;shadow=0;glass=0;labelBackgroundColor=none;sketch=0;fontColor=default;" vertex="1" parent="1">
                    <mxGeometry x="370" y="140" width="100" height="40" as="geometry"/>
                </mxCell>
                <mxCell id="23" value="&lt;font color=&quot;#33001a&quot;&gt;API&lt;/font&gt;" style="ellipse;whiteSpace=wrap;html=1;aspect=fixed;rounded=0;shadow=0;glass=0;labelBackgroundColor=none;sketch=0;strokeColor=#d79b00;fontSize=10;fillColor=#ffe6cc;" vertex="1" parent="1">
                    <mxGeometry x="410" y="210" width="60" height="60" as="geometry"/>
                </mxCell>
                <mxCell id="25" value="" style="rounded=0;whiteSpace=wrap;html=1;shadow=0;glass=0;labelBackgroundColor=none;sketch=0;strokeColor=#666666;fontSize=10;fontColor=#333333;fillColor=#f5f5f5;" vertex="1" parent="1">
                    <mxGeometry x="309.06" y="310" width="259.38" height="170" as="geometry"/>
                </mxCell>
                <mxCell id="26" style="edgeStyle=none;html=1;entryX=0.5;entryY=0;entryDx=0;entryDy=0;fontSize=10;fontColor=#33001A;fillColor=#ffe6cc;strokeColor=#d79b00;" edge="1" parent="1" source="23" target="31">
                    <mxGeometry relative="1" as="geometry"/>
                </mxCell>
                <mxCell id="29" value="&lt;p style=&quot;line-height: 100%;&quot;&gt;&lt;font style=&quot;font-size: 5px;&quot;&gt;POST&lt;/font&gt;&lt;/p&gt;" style="rounded=0;whiteSpace=wrap;html=1;shadow=0;glass=0;labelBackgroundColor=none;sketch=0;fillStyle=auto;strokeColor=#d6b656;fontSize=10;fillColor=#fff2cc;fontColor=#000000;" vertex="1" parent="1">
                    <mxGeometry x="370" y="140" width="20" height="10" as="geometry"/>
                </mxCell>
                <mxCell id="30" value="&lt;font style=&quot;font-size: 12px;&quot;&gt;SERVER SIDE&lt;/font&gt;" style="text;html=1;strokeColor=none;fillColor=none;align=center;verticalAlign=middle;whiteSpace=wrap;rounded=0;shadow=0;glass=0;labelBackgroundColor=none;sketch=0;fillStyle=auto;fontSize=5;fontColor=#000000;" vertex="1" parent="1">
                    <mxGeometry x="384.38" y="310" width="111.25" height="30" as="geometry"/>
                </mxCell>
                <mxCell id="34" style="edgeStyle=none;rounded=0;html=1;exitX=0.5;exitY=1;exitDx=0;exitDy=0;entryX=0.5;entryY=0;entryDx=0;entryDy=0;fontSize=12;fontColor=#33001A;fillColor=#cdeb8b;strokeColor=#36393d;" edge="1" parent="1" source="31" target="32">
                    <mxGeometry relative="1" as="geometry"/>
                </mxCell>
                <mxCell id="31" value="&lt;font color=&quot;#33001a&quot;&gt;Controller&lt;/font&gt;" style="rounded=0;whiteSpace=wrap;html=1;shadow=0;glass=0;labelBackgroundColor=none;sketch=0;fillStyle=auto;fontSize=12;fillColor=none;strokeColor=#33001A;" vertex="1" parent="1">
                    <mxGeometry x="320" y="340" width="80" height="20" as="geometry"/>
                </mxCell>
                <mxCell id="35" style="edgeStyle=none;rounded=0;html=1;entryX=0.5;entryY=0;entryDx=0;entryDy=0;fontSize=12;fontColor=#33001A;fillColor=#ffff88;strokeColor=#36393d;" edge="1" parent="1" source="32" target="33">
                    <mxGeometry relative="1" as="geometry"/>
                </mxCell>
                <mxCell id="32" value="&lt;font color=&quot;#33001a&quot;&gt;Service&lt;/font&gt;" style="rounded=0;whiteSpace=wrap;html=1;shadow=0;glass=0;labelBackgroundColor=none;sketch=0;fillStyle=auto;fontSize=12;fillColor=none;strokeColor=#33001A;" vertex="1" parent="1">
                    <mxGeometry x="320" y="390" width="80" height="20" as="geometry"/>
                </mxCell>
                <mxCell id="37" style="edgeStyle=none;rounded=0;html=1;fontSize=12;fontColor=#33001A;fillColor=#ffff88;strokeColor=#36393d;startArrow=none;" edge="1" parent="1" source="38" target="36">
                    <mxGeometry relative="1" as="geometry"/>
                </mxCell>
                <mxCell id="33" value="&lt;font color=&quot;#33001a&quot;&gt;Repository&lt;/font&gt;" style="rounded=0;whiteSpace=wrap;html=1;shadow=0;glass=0;labelBackgroundColor=none;sketch=0;fillStyle=auto;fontSize=12;fillColor=none;strokeColor=#33001A;" vertex="1" parent="1">
                    <mxGeometry x="320" y="440" width="80" height="20" as="geometry"/>
                </mxCell>
                <mxCell id="36" value="" style="aspect=fixed;perimeter=ellipsePerimeter;html=1;align=center;shadow=0;dashed=0;spacingTop=3;image;image=img/lib/active_directory/database.svg;rounded=0;glass=0;labelBackgroundColor=none;sketch=0;fillStyle=auto;strokeColor=#33001A;fontSize=12;fontColor=#33001A;fillColor=none;" vertex="1" parent="1">
                    <mxGeometry x="391.45" y="520" width="94.6" height="70" as="geometry"/>
                </mxCell>
                <mxCell id="39" value="" style="edgeStyle=none;rounded=0;html=1;fontSize=12;fontColor=#33001A;fillColor=#ffff88;strokeColor=#36393d;endArrow=none;" edge="1" parent="1" source="33" target="38">
                    <mxGeometry relative="1" as="geometry">
                        <mxPoint x="367.6155926592178" y="460" as="sourcePoint"/>
                        <mxPoint x="416.75114099913026" y="524.5196645075806" as="targetPoint"/>
                    </mxGeometry>
                </mxCell>
                <mxCell id="38" value="" style="image;html=1;image=img/lib/clip_art/computers/Database_Add_128x128.png;rounded=0;shadow=0;glass=0;labelBackgroundColor=none;sketch=0;fillStyle=auto;strokeColor=#33001A;fontSize=12;fontColor=#33001A;fillColor=none;" vertex="1" parent="1">
                    <mxGeometry x="383" y="500" width="37" height="10" as="geometry"/>
                </mxCell>
            </root>
        </mxGraphModel>
    </diagram>
</mxfile>